<svg xmlns="http://www.w3.org/2000/svg" width="0" height="0"><symbol id="icon-fb" viewBox="0 0 9 17"><path d="M6.308 2.924h2.01V.011L5.55 0C2.476 0 1.777 2.175 1.777 3.563v1.942H0v3h1.777V17h3.738V8.506h2.523l.327-3h-2.85V3.741c0-.663.466-.818.793-.818" fill="#00E676" fill-rule="evenodd" opacity=".697"/></symbol><symbol id="icon-ok" viewBox="0 0 12 18"><path d="M6.843 8.83c2.17-.468 4.162-2.626 3.521-5.3C9.863 1.442 7.561-.599 4.742.161c-6.148 1.662-3.661 9.912 2.1 8.668zm-1.6-6.458c1.39-.375 2.504.554 2.788 1.57.363 1.305-.592 2.394-1.618 2.657-2.913.747-4.16-3.43-1.17-4.227zM9.05 9.536c-1.907 1.077-4.439 1.098-6.37.048-.367-.2-.796-.575-1.274-.62C.08 8.837-1.569 10.928 3.06 12.34c.42.128 1.304.244 1.59.389l-3.175 2.975c-1.194 1.1-.214 2.373.96 2.192.89-.137 2.513-2.373 3.432-2.81.409.467 2.662 2.742 3.38 2.819 1.131.119 2.07-1.07.967-2.115-.663-.63-2.994-2.67-3.214-3.082 1.273-.368 1.348-.148 2.972-.926 2.959-1.42 1.277-2.78.445-2.824-.619-.031-.958.348-1.367.577z" fill="#00E676" fill-rule="evenodd" opacity=".697"/></symbol><symbol id="icon-twi" viewBox="0 0 18 14"><path d="M0 12.412A10.484 10.484 0 0 0 5.57 14c6.682 0 10.337-5.387 10.337-10.057 0-.153-.004-.305-.011-.456a7.26 7.26 0 0 0 1.812-1.83 7.34 7.34 0 0 1-2.086.555A3.562 3.562 0 0 0 17.22.258a7.422 7.422 0 0 1-2.308.857A3.678 3.678 0 0 0 12.26 0c-2.006 0-3.633 1.581-3.633 3.532 0 .279.032.547.094.806A10.407 10.407 0 0 1 1.233.646a3.45 3.45 0 0 0-.492 1.777c0 1.226.641 2.308 1.616 2.942a3.671 3.671 0 0 1-1.646-.442v.044c0 1.712 1.254 3.142 2.914 3.466a3.695 3.695 0 0 1-.956.124c-.235 0-.463-.021-.684-.063.461 1.405 1.804 2.427 3.393 2.454A7.41 7.41 0 0 1 .867 12.46c-.293 0-.582-.014-.867-.048" fill="#00E676" fill-rule="evenodd" opacity=".697"/></symbol><symbol id="icon-vk" viewBox="0 0 26 14"><path d="M12.569 13.941h1.536s.463-.048.7-.292c.219-.224.211-.645.211-.645s-.03-1.967.926-2.258c.943-.286 2.154 1.902 3.436 2.744.97.637 1.708.497 1.708.497l3.43-.046s1.795-.106.944-1.453c-.07-.11-.496-.997-2.55-2.82-2.152-1.907-1.864-1.598.728-4.898 1.577-2.009 2.209-3.236 2.01-3.76-.186-.503-1.346-.37-1.346-.37l-3.863.023s-.287-.038-.5.084c-.206.118-.34.396-.34.396s-.612 1.554-1.426 2.876c-1.72 2.79-2.408 2.938-2.69 2.765-.654-.404-.49-1.622-.49-2.487 0-2.705.43-3.832-.836-4.124-.42-.096-.729-.16-1.803-.17-1.378-.015-2.544.003-3.205.312-.44.205-.779.664-.572.69.255.033.834.149 1.14.547.396.515.382 1.67.382 1.67s.228 3.183-.531 3.579c-.521.27-1.235-.283-2.769-2.815C6.013 2.691 5.42 1.258 5.42 1.258S5.305.99 5.1.846C4.854.673 4.508.618 4.508.618L.837.64S.287.656.084.885c-.18.203-.014.624-.014.624s2.873 6.423 6.127 9.66c2.984 2.967 6.372 2.772 6.372 2.772" fill="#00E676" fill-rule="evenodd" opacity=".697"/></symbol><symbol id="icon-youtube" viewBox="0 0 20 15"><path d="M7.935 9.696v-5.66l5.403 2.84-5.403 2.82zM19.8 3.056s-.196-1.388-.795-2c-.76-.802-1.613-.805-2.004-.852C14.202 0 10.004 0 10.004 0h-.008S5.798 0 2.999.204c-.391.047-1.243.05-2.005.853C.395 1.668.2 3.056.2 3.056S0 4.686 0 6.316v1.528c0 1.63.2 3.26.2 3.26s.195 1.388.794 1.999c.762.802 1.761.777 2.206.861 1.6.155 6.8.203 6.8.203s4.202-.007 7.001-.21c.39-.048 1.243-.052 2.004-.854.6-.611.795-2 .795-2s.2-1.629.2-3.259V6.316c0-1.63-.2-3.26-.2-3.26z" fill="#00E676" fill-rule="evenodd" opacity=".697"/></symbol></svg>